<svg data-v-423bf9ae="" xmlns="http://www.w3.org/2000/svg" viewBox="0 0 921 693" class="iconLeft"><!----><!----><!----><g data-v-423bf9ae="" id="114c7de5-854e-4c88-9b8f-a308d7de44dc" fill="#53BBAD" transform="matrix(4.983388900756836,0,0,4.983388900756836,763.9609985351562,297.31719970703125)"><path d="M8.60 9.80C9.35 9.13 9.73 8.23 9.73 7.34C9.73 6.38 9.30 5.46 8.53 4.80C7.73 4.13 6.64 3.78 5.36 3.78L1.26 3.78C1.11 3.78 0.98 3.91 0.98 4.07L0.98 5.21L3.32 8.71L0.98 8.71L0.98 15.53C0.98 15.68 1.11 15.82 1.26 15.82L5.36 15.82C8.23 15.82 9.73 14.03 9.73 12.26C9.73 11.33 9.32 10.44 8.60 9.80ZM4.12 5.96L5.36 5.96C6.86 5.96 7.55 6.68 7.55 7.34C7.55 7.91 7.03 8.51 5.92 8.67ZM3.16 13.62L3.16 10.89L5.36 10.89C6.86 10.89 7.55 11.61 7.55 12.26C7.55 12.92 6.86 13.62 5.36 13.62ZM19.75 12.05C19.75 13.22 19.28 14.22 18.40 14.92C17.65 15.50 16.69 15.82 15.65 15.82C14.62 15.82 13.65 15.50 12.91 14.92C12.03 14.22 11.55 13.22 11.55 12.05L11.55 4.07C11.55 3.92 11.68 3.78 11.83 3.78L13.47 3.78C13.62 3.78 13.73 3.92 13.73 4.07L13.73 12.05C13.73 13.58 15.46 13.64 15.65 13.64C15.85 13.64 17.57 13.58 17.57 12.05L17.57 4.07C17.57 3.92 17.70 3.78 17.84 3.78L19.49 3.78C19.63 3.78 19.75 3.92 19.75 4.07ZM31.29 8.79C31.25 8.74 31.19 8.71 31.12 8.71L27.29 8.71C27.13 8.71 27.02 8.83 27.02 8.99L27.02 10.63C27.02 10.78 27.13 10.89 27.29 10.89L29.20 10.89L29.20 12.95C27.54 14.11 25.23 13.76 23.98 12.12C22.69 10.44 23.02 8.04 24.70 6.76C26.03 5.75 27.80 5.74 29.12 6.61C29.22 6.66 29.34 6.66 29.43 6.59L30.79 5.56C30.91 5.46 30.93 5.29 30.83 5.17C30.83 5.15 30.81 5.14 30.80 5.12L30.76 5.10C28.66 3.42 25.61 3.32 23.38 5.03C20.73 7.04 20.23 10.82 22.25 13.45C23.90 15.62 26.77 16.35 29.20 15.41C29.72 15.20 30.21 14.94 30.67 14.59C30.90 14.41 31.11 14.22 31.30 14.03L31.30 14.01C31.36 13.97 31.39 13.90 31.39 13.82L31.39 8.99C31.39 8.90 31.36 8.85 31.29 8.79Z"></path></g><!----><g data-v-423bf9ae="" id="3d6d246d-18f9-43cb-872b-662e5af9cd66" transform="matrix(2.773503303527832,0,0,2.773503303527832,-41.02528381347656,-69.83330535888672)" stroke="none" fill="#53BBAD"><defs><style></style></defs><path d="M148.528 25.212c-9.466.245-19.103 2.758-27.867 7.817-19.836 11.452-30.42 33.007-29.155 54.54-25.848 17.884-41.2 46.144-43.778 75.876-1.146.564-2.283 1.1-3.403 1.747-27.952 16.138-37.653 52.35-21.521 80.29 16.138 27.953 52.35 37.654 80.29 21.522a59.03 59.03 0 0 0 3.22-2.023c27.082 12.662 59.289 13.49 87.74 0 17.991 11.767 41.844 13.442 61.621 2.023 27.952-16.138 37.653-52.35 21.521-80.29-5.99-10.377-14.772-18.27-24.832-23.27a101.706 101.706 0 0 0-13.336-42.766c-7.809-13.526-18.345-24.574-30.442-32.926.751-11.217-1.634-22.717-7.634-33.11-11.073-19.178-31.538-29.973-52.424-29.43zm.736 29.43c10.347-.268 20.473 4.935 26.12 14.716 8.188 14.182 3.503 31.825-10.669 40.007-14.154 8.172-31.816 3.427-40.007-10.76-8.188-14.182-3.503-31.826 10.669-40.008 4.4-2.54 9.157-3.832 13.887-3.955zM101.531 117c17.078 25.077 51.202 33.349 77.9 17.934 7.904-4.563 14.227-10.804 19.038-17.934 5.799 5.134 10.88 11.275 14.991 18.394 4.077 7.061 6.808 14.535 8.37 22.073-8.517.646-17.06 3.094-24.925 7.634-26.69 15.41-36.646 49.093-23.452 76.428a73.044 73.044 0 0 1-46.906.092c8.114-16.946 8.1-37.532-1.931-54.907-10.038-17.387-27.811-27.746-46.538-29.155 3.096-15.391 11.145-29.766 23.453-40.56zm123.977 69.714c10.348-.268 20.473 4.934 26.12 14.716 8.188 14.182 3.503 31.825-10.668 40.007-14.155 8.172-31.817 3.427-40.008-10.76-8.188-14.182-3.503-31.826 10.669-40.008 4.4-2.54 9.157-3.832 13.887-3.955zm-152.58.092c10.405-.27 20.486 4.866 26.12 14.624 8.188 14.182 3.503 31.825-10.669 40.007-14.182 8.188-31.825 3.503-40.007-10.669-8.188-14.182-3.503-31.825 10.668-40.007 4.4-2.54 9.158-3.832 13.888-3.955z" style="text-indent:0;text-transform:none;block-progression:tb" overflow="visible" color="#000"></path></g><!----></svg>